<svg version="1.1" xmlns="http://www.w3.org/2000/svg" viewBox="0 0 2556.25 1470.0000000000002" width="5112.5" height="2940.0000000000005">
  <!-- svg-source:excalidraw -->
  
  <defs>
    <style class="style-fonts">
      @font-face {
        font-family: "Virgil";
        src: url("https://excalidraw.com/Virgil.woff2");
      }
      @font-face {
        font-family: "Cascadia";
        src: url("https://excalidraw.com/Cascadia.woff2");
      }
    </style>
    
  </defs>
  <rect x="0" y="0" width="2556.25" height="1470.0000000000002" fill="#ffffff"></rect><g stroke-linecap="round" transform="translate(9.999999999999773 78.75000000000011) rotate(0 1268.1250000000002 616.8750000000002)"><path d="M773.85 49.34 C810.86 30.58, 871.32 31.15, 921.3 24.2 C971.28 17.26, 1022.17 11.76, 1073.71 7.67 C1125.24 3.58, 1178.36 0.56, 1230.53 -0.32 C1282.7 -1.2, 1334.93 -0.19, 1386.73 2.39 C1438.52 4.97, 1490.62 9.79, 1541.28 15.17 C1591.94 20.55, 1641.99 26.22, 1690.68 34.67 C1739.36 43.11, 1786.94 54.28, 1833.41 65.82 C1879.88 77.36, 1926.24 89.95, 1969.51 103.91 C2012.77 117.87, 2053.68 133.41, 2093.01 149.57 C2132.34 165.73, 2170.23 182.42, 2205.48 200.88 C2240.73 219.34, 2274.56 239.65, 2304.51 260.33 C2334.46 281.01, 2360.83 302.46, 2385.19 324.95 C2409.54 347.45, 2431.92 371.54, 2450.62 395.29 C2469.32 419.04, 2484.82 442.98, 2497.4 467.48 C2509.98 491.99, 2519.54 517.35, 2526.09 542.31 C2532.65 567.27, 2536.53 592.04, 2536.73 617.23 C2536.93 642.42, 2533.88 668.32, 2527.27 693.43 C2520.66 718.55, 2510.05 743.4, 2497.06 767.9 C2484.07 792.39, 2468.07 816.79, 2449.34 840.42 C2430.6 864.05, 2408.98 887.37, 2384.65 909.67 C2360.32 931.98, 2333.29 953.75, 2303.35 974.27 C2273.41 994.79, 2240.09 1014.36, 2205.02 1032.79 C2169.95 1051.21, 2132.52 1068.45, 2092.94 1084.82 C2053.36 1101.19, 2010.89 1116.79, 1967.53 1131.01 C1924.17 1145.23, 1879.41 1158.79, 1832.78 1170.15 C1786.14 1181.5, 1736.71 1190.81, 1687.71 1199.13 C1638.72 1207.44, 1589.52 1214.87, 1538.81 1220.06 C1488.09 1225.25, 1435.19 1228.05, 1383.43 1230.27 C1331.68 1232.48, 1280.06 1233.86, 1228.3 1233.34 C1176.53 1232.83, 1124.27 1230.91, 1072.85 1227.18 C1021.43 1223.45, 969.85 1217.96, 919.77 1210.99 C869.68 1204.01, 820.14 1195.31, 772.32 1185.34 C724.5 1175.38, 677.87 1164.1, 632.86 1151.2 C587.84 1138.3, 543.67 1123.07, 502.23 1107.93 C460.79 1092.79, 421.42 1077.88, 384.21 1060.34 C347 1042.8, 311.42 1022.46, 278.95 1002.69 C246.48 982.92, 216.76 963.05, 189.41 941.71 C162.05 920.36, 136.53 897.55, 114.81 874.63 C93.09 851.71, 74.49 828.19, 59.08 804.19 C43.66 780.2, 31.62 755.55, 22.3 730.66 C12.98 705.78, 6.48 680.28, 3.17 654.86 C-0.13 629.43, -0.58 603.37, 2.48 578.13 C5.53 552.89, 11.99 528.24, 21.52 503.43 C31.04 478.62, 43.77 453.37, 59.61 429.26 C75.45 405.15, 94.81 381.69, 116.56 358.75 C138.31 335.81, 162.79 313.21, 190.11 291.63 C217.43 270.05, 247.87 248.75, 280.48 229.25 C313.08 209.75, 348.43 192.26, 385.76 174.61 C423.1 156.97, 462.95 138.83, 504.51 123.38 C546.08 107.92, 580.09 96.34, 635.17 81.88 C690.25 67.42, 790.27 43.7, 835.01 36.62 C879.75 29.54, 896.29 29.57, 903.61 39.41 M1429.37 4.1 C1481.04 -2.97, 1534 13.73, 1584.32 20.24 C1634.65 26.75, 1683.28 33.86, 1731.32 43.16 C1779.35 52.46, 1827.03 63.96, 1872.53 76.01 C1918.04 88.07, 1962.04 101.23, 2004.36 115.5 C2046.68 129.76, 2088.12 144.71, 2126.45 161.59 C2164.78 178.47, 2200.66 197.42, 2234.32 216.76 C2267.99 236.11, 2299.69 256.57, 2328.42 277.69 C2357.15 298.8, 2383.99 320.84, 2406.7 343.44 C2429.41 366.03, 2447.63 389.04, 2464.68 413.24 C2481.73 437.45, 2498.02 463.82, 2509 488.68 C2519.97 513.53, 2526.04 537.45, 2530.52 562.38 C2534.99 587.32, 2537.53 612.97, 2535.83 638.3 C2534.14 663.63, 2528.85 689.46, 2520.35 714.38 C2511.85 739.3, 2499.49 763.75, 2484.83 787.8 C2470.18 811.86, 2452.53 835.61, 2432.43 858.71 C2412.33 881.81, 2390.25 904.51, 2364.23 926.4 C2338.2 948.3, 2308.13 969.81, 2276.29 990.1 C2244.44 1010.38, 2209.39 1030.02, 2173.16 1048.1 C2136.94 1066.18, 2099.51 1082.96, 2058.95 1098.56 C2018.38 1114.15, 1974.29 1128.53, 1929.77 1141.67 C1885.25 1154.8, 1838.81 1166.89, 1791.84 1177.38 C1744.87 1187.87, 1697.51 1196.68, 1647.95 1204.61 C1598.39 1212.55, 1545.66 1220.25, 1494.5 1224.98 C1443.34 1229.72, 1392.9 1231.87, 1341 1233 C1289.1 1234.13, 1235.26 1233.4, 1183.1 1231.77 C1130.95 1230.13, 1079.13 1228.04, 1028.09 1223.2 C977.06 1218.36, 926.31 1210.51, 876.9 1202.72 C827.48 1194.93, 778.51 1186.75, 731.62 1176.46 C684.72 1166.17, 639.37 1154.65, 595.53 1140.98 C551.69 1127.3, 508.93 1110.71, 468.59 1094.42 C428.24 1078.13, 389.22 1061.24, 353.46 1043.23 C317.7 1025.23, 285.21 1006.58, 254.04 986.37 C222.86 966.16, 192.35 943.77, 166.43 921.97 C140.52 900.16, 118.61 878.75, 98.55 855.53 C78.49 832.31, 59.99 807.03, 46.07 782.63 C32.14 758.22, 22.55 733.92, 14.99 709.09 C7.43 684.27, 1.95 659.15, 0.69 633.68 C-0.57 608.21, 2.48 581.62, 7.43 556.28 C12.38 530.93, 19.1 506.08, 30.41 481.58 C41.73 457.08, 58 432.75, 75.34 409.28 C92.67 385.81, 111.15 363.1, 134.44 340.76 C157.72 318.42, 185.84 296.45, 215.05 275.25 C244.26 254.05, 275.76 232.73, 309.68 213.55 C343.59 194.37, 380.04 177.1, 418.53 160.2 C457.03 143.3, 498.33 126.69, 540.64 112.16 C582.95 97.64, 626.39 84.78, 672.38 73.04 C718.36 61.31, 768.12 50.97, 816.57 41.75 C865.01 32.52, 912.68 23.9, 963.05 17.69 C1013.41 11.48, 1067.05 7.41, 1118.76 4.49 C1170.47 1.58, 1221.59 0.29, 1273.31 0.19 C1325.03 0.09, 1403.77 1.27, 1429.09 3.9 C1454.41 6.54, 1427.66 5.55, 1425.24 16.01" stroke="#000000" stroke-width="1" fill="none"></path></g><g stroke-linecap="round" transform="translate(333.7499999999998 483.75) rotate(0 581.8750000000002 193.7499999999999)"><path d="M579.65 0.4 C613.73 -2.69, 652.26 1.95, 687.3 3.93 C722.34 5.91, 756.74 8.07, 789.9 12.28 C823.07 16.5, 855.83 22.92, 886.29 29.22 C916.75 35.52, 946.18 42.15, 972.64 50.08 C999.11 58.02, 1023.65 67.49, 1045.07 76.82 C1066.5 86.15, 1085.26 95.5, 1101.19 106.06 C1117.13 116.62, 1130.74 128.62, 1140.67 140.17 C1150.6 151.71, 1157.4 163.58, 1160.76 175.31 C1164.11 187.05, 1163.97 198.79, 1160.81 210.55 C1157.64 222.31, 1151.13 234.41, 1141.77 245.86 C1132.42 257.32, 1120.3 268.77, 1104.67 279.27 C1089.05 289.77, 1069.42 299.42, 1048.03 308.86 C1026.63 318.3, 1002.42 327.56, 976.29 335.9 C950.17 344.24, 921.58 352.44, 891.27 358.88 C860.97 365.33, 827.94 370.38, 794.49 374.59 C761.03 378.8, 725.71 381.89, 690.54 384.13 C655.38 386.38, 618.89 388.02, 583.51 388.05 C548.13 388.07, 513.04 386.41, 478.25 384.28 C443.46 382.15, 408.22 379.66, 374.77 375.27 C341.33 370.88, 308.04 364.36, 277.57 357.95 C247.11 351.53, 218.33 344.47, 191.99 336.77 C165.65 329.07, 141.15 320.96, 119.55 311.73 C97.94 302.49, 78.53 292.18, 62.34 281.35 C46.16 270.51, 32.45 258.19, 22.42 246.7 C12.39 235.21, 5.62 224.09, 2.18 212.4 C-1.26 200.72, -1.46 188.33, 1.78 176.58 C5.02 164.84, 11.95 153.42, 21.61 141.91 C31.27 130.41, 43.95 118.17, 59.76 107.55 C75.57 96.93, 95.15 87.44, 116.47 78.18 C137.8 68.91, 161.51 60.06, 187.7 51.95 C213.9 43.85, 243.21 35.85, 273.63 29.53 C304.05 23.22, 337.19 18.29, 370.2 14.06 C403.22 9.84, 432.81 6.49, 471.72 4.18 C510.63 1.87, 577.35 0.27, 603.66 0.18 C629.97 0.1, 629.66 0.55, 629.55 3.68 M582.82 -0.13 C616.94 -3.33, 656.28 0.87, 691.31 2.93 C726.35 4.99, 760.17 7.65, 793.04 12.24 C825.92 16.83, 858.13 23.9, 888.56 30.46 C918.99 37.03, 949.08 43.64, 975.62 51.63 C1002.16 59.62, 1026.46 69.04, 1047.81 78.38 C1069.16 87.73, 1087.93 97.08, 1103.74 107.69 C1119.54 118.31, 1133.02 130.8, 1142.64 142.08 C1152.27 153.37, 1158.16 163.57, 1161.49 175.39 C1164.82 187.2, 1165.91 200.78, 1162.61 212.97 C1159.31 225.15, 1151.89 237.13, 1141.7 248.49 C1131.51 259.85, 1117.48 270.82, 1101.44 281.13 C1085.41 291.44, 1066.73 300.85, 1045.48 310.36 C1024.23 319.86, 1000.45 330.25, 973.94 338.15 C947.42 346.04, 916.65 351.78, 886.38 357.73 C856.12 363.67, 825.54 369.21, 792.33 373.82 C759.12 378.43, 722.45 383.04, 687.14 385.36 C651.83 387.68, 615.8 387.71, 580.49 387.72 C545.18 387.74, 510.02 387.82, 475.28 385.43 C440.54 383.04, 405.45 377.86, 372.07 373.37 C338.69 368.88, 305.3 364.39, 274.99 358.48 C244.67 352.58, 216.56 346.22, 190.18 337.96 C163.8 329.7, 138.4 318.65, 116.71 308.93 C95.02 299.21, 75.67 290.11, 60.05 279.63 C44.44 269.16, 32.82 257.32, 23.01 246.09 C13.21 234.87, 4.88 224, 1.24 212.28 C-2.39 200.57, -2.54 188.01, 1.21 175.8 C4.96 163.59, 13.77 150.53, 23.76 139.02 C33.74 127.52, 45.16 117.19, 61.13 106.76 C77.09 96.33, 98.17 85.77, 119.53 76.44 C140.88 67.1, 163.13 58.84, 189.24 50.73 C215.36 42.62, 245.73 33.93, 276.24 27.77 C306.75 21.62, 339.22 17.7, 372.28 13.79 C405.35 9.88, 439.48 6.64, 474.61 4.31 C509.74 1.98, 565.02 0.12, 583.06 -0.19 C601.1 -0.5, 582.67 -0.97, 582.84 2.46" stroke="#000000" stroke-width="1" fill="none"></path></g><g stroke-linecap="round" transform="translate(1074.9999999999993 517.5) rotate(0 561.8750000000005 183.1249999999999)"><path d="M711.61 6.64 C746.58 6.65, 779.14 13.83, 810.86 18.98 C842.57 24.13, 873.51 30.4, 901.91 37.55 C930.31 44.7, 957.44 53.27, 981.27 61.88 C1005.1 70.5, 1026.65 79.62, 1044.88 89.25 C1063.12 98.89, 1078.81 108.89, 1090.7 119.7 C1102.58 130.51, 1110.82 142.51, 1116.2 154.1 C1121.57 165.7, 1123.97 177.62, 1122.96 189.27 C1121.96 200.91, 1117.82 212.84, 1110.16 223.99 C1102.5 235.13, 1091.32 245.68, 1077 256.13 C1062.68 266.58, 1044.32 277.24, 1024.24 286.71 C1004.16 296.17, 981.59 304.66, 956.54 312.94 C931.49 321.21, 903.66 329.87, 873.92 336.35 C844.19 342.84, 811.12 347.61, 778.12 351.83 C745.13 356.04, 710.36 359.19, 675.95 361.65 C641.54 364.12, 606.94 366.22, 571.66 366.6 C536.37 366.98, 499.21 365.95, 464.23 363.94 C429.25 361.92, 395.01 358.71, 361.77 354.5 C328.53 350.3, 294.99 344.86, 264.79 338.7 C234.58 332.54, 206.61 325.22, 180.54 317.54 C154.48 309.86, 129.46 302.02, 108.41 292.62 C87.35 283.23, 69.34 271.62, 54.2 261.19 C39.05 250.76, 26.53 241.15, 17.56 230.07 C8.6 218.99, 2.62 206.52, 0.39 194.7 C-1.84 182.87, -0.5 170.4, 4.21 159.1 C8.92 147.8, 17.53 137.87, 28.65 126.89 C39.76 115.91, 53.64 103.41, 70.9 93.23 C88.17 83.05, 109.47 74.55, 132.24 65.83 C155.01 57.12, 180.27 48.2, 207.52 40.96 C234.77 33.72, 264.39 27.98, 295.75 22.39 C327.1 16.81, 361.56 10.85, 395.63 7.45 C429.71 4.06, 465.07 3.17, 500.19 2 C535.3 0.84, 568.62 -0.58, 606.31 0.45 C644 1.48, 704.49 6.17, 726.33 8.19 C748.16 10.22, 740.19 9.58, 737.32 12.58 M562.63 -0.76 C596.58 -3.76, 633.68 1.88, 668.57 4.44 C703.46 7, 739.17 10.26, 771.97 14.6 C804.77 18.95, 835.58 24.71, 865.38 30.52 C895.18 36.33, 925.22 41.57, 950.75 49.46 C976.28 57.36, 998.11 68.35, 1018.56 77.9 C1039.01 87.44, 1058.65 96.53, 1073.47 106.72 C1088.29 116.9, 1099.31 127.75, 1107.49 139 C1115.67 150.24, 1120.69 162.54, 1122.55 174.2 C1124.41 185.87, 1123.68 197.62, 1118.65 208.97 C1113.63 220.33, 1104 231.59, 1092.39 242.34 C1080.77 253.09, 1066.74 263.21, 1048.99 273.49 C1031.23 283.77, 1008.93 295.16, 985.86 304.01 C962.79 312.87, 938.49 319.73, 910.55 326.64 C882.62 333.56, 849.72 340.14, 818.24 345.5 C786.75 350.86, 755.26 355.7, 721.64 358.81 C688.01 361.92, 652.02 363.09, 616.47 364.16 C580.93 365.23, 544.07 366.09, 508.37 365.21 C472.67 364.33, 436.12 362.23, 402.28 358.87 C368.45 355.52, 336.85 350.57, 305.37 345.07 C273.9 339.58, 241.37 332.86, 213.46 325.89 C185.54 318.93, 161.13 311.72, 137.89 303.28 C114.65 294.83, 91.81 285.36, 74.01 275.22 C56.21 265.08, 42.3 253.22, 31.1 242.43 C19.9 231.64, 12.13 221.64, 6.81 210.48 C1.5 199.33, -2.53 187.03, -0.79 175.5 C0.94 163.97, 8.63 152.55, 17.22 141.31 C25.81 130.07, 36.08 118.72, 50.74 108.09 C65.39 97.46, 84.53 87.13, 105.15 77.53 C125.76 67.94, 148.99 58.56, 174.43 50.51 C199.87 42.46, 227.89 35.67, 257.78 29.23 C287.67 22.8, 320.73 16.13, 353.75 11.92 C386.77 7.71, 421.19 5.85, 455.89 3.97 C490.59 2.1, 544.06 0.54, 561.94 0.66 C579.82 0.77, 563.25 1.73, 563.15 4.65" stroke="#000000" stroke-width="1" fill="none"></path></g><g transform="translate(1104.9999999999993 10) rotate(0 104.05000305175781 22.5)"><text x="0" y="0" font-family="Virgil, Segoe UI Emoji" font-size="36px" fill="#000000" text-anchor="start" style="white-space: pre;" direction="ltr" dominant-baseline="text-before-edge">StackState</text></g><g transform="translate(836.2499999999993 436.25) rotate(0 82.31666564941406 45)"><text x="0" y="0" font-family="Virgil, Segoe UI Emoji" font-size="36px" fill="#000000" text-anchor="start" style="white-space: pre;" direction="ltr" dominant-baseline="text-before-edge">Dataless</text><text x="0" y="45" font-family="Virgil, Segoe UI Emoji" font-size="36px" fill="#000000" text-anchor="start" style="white-space: pre;" direction="ltr" dominant-baseline="text-before-edge"></text></g><g transform="translate(1558.9033355712893 470) rotate(0 66.01667022705078 22.5)"><text x="0" y="0" font-family="Virgil, Segoe UI Emoji" font-size="36px" fill="#000000" text-anchor="start" style="white-space: pre;" direction="ltr" dominant-baseline="text-before-edge">SizeSet</text></g><g transform="translate(628.7499999999998 654.9999999999998) rotate(0 86.08333587646484 22.5)"><text x="0" y="0" font-family="Virgil, Segoe UI Emoji" font-size="36px" fill="#000000" text-anchor="start" style="white-space: pre;" direction="ltr" dominant-baseline="text-before-edge">SizeUnset</text></g><g transform="translate(1201.4266662597645 667.4999999999998) rotate(0 115 22.5)"><text x="0" y="0" font-family="Virgil, Segoe UI Emoji" font-size="36px" fill="#000000" text-anchor="start" style="white-space: pre;" direction="ltr" dominant-baseline="text-before-edge">WithoutData</text></g><g transform="translate(1638.7366638183591 667.4999999999998) rotate(0 84.6500015258789 22.5)"><text x="0" y="0" font-family="Virgil, Segoe UI Emoji" font-size="36px" fill="#000000" text-anchor="start" style="white-space: pre;" direction="ltr" dominant-baseline="text-before-edge">WithData</text></g><g transform="translate(318.7499999999998 1415.0000000000002) rotate(0 1032.36669921875 22.5)"><text x="0" y="0" font-family="Virgil, Segoe UI Emoji" font-size="36px" fill="#000000" text-anchor="start" style="white-space: pre;" direction="ltr" dominant-baseline="text-before-edge">Since the Builder only allows Generics of the "StackState set" and since that is sealed you can't add new States</text></g><g stroke-linecap="round"><g transform="translate(839.6001279277195 686.6419451313625) rotate(0 166.85598939961187 -0.8289205246754818)"><path d="M0.03 1.1 C55.76 0.8, 279.58 -2.11, 335.12 -2.76 M-1.41 0.64 C54.15 0.56, 278.37 -1.17, 334.53 -1.59" stroke="#1e1e1e" stroke-width="1" fill="none"></path></g><g transform="translate(839.6001279277195 686.6419451313625) rotate(0 166.85598939961187 -0.8289205246754818)"><path d="M308.25 10 C315.53 3.11, 325.66 -0.31, 335.95 -3.12 M305.9 9.33 C315.01 6.19, 322.06 3.48, 334.2 -1.01" stroke="#1e1e1e" stroke-width="1" fill="none"></path></g><g transform="translate(839.6001279277195 686.6419451313625) rotate(0 166.85598939961187 -0.8289205246754818)"><path d="M308.1 -10.52 C315.27 -9.97, 325.46 -5.95, 335.95 -3.12 M305.74 -11.19 C314.86 -8.79, 321.95 -5.94, 334.2 -1.01" stroke="#1e1e1e" stroke-width="1" fill="none"></path></g></g><mask></mask><g stroke-linecap="round"><g transform="translate(1465.148578028526 701.0935737855964) rotate(0 75.24697214293565 -3.31679249111437)"><path d="M-0.17 0.33 C25.19 -0.78, 126.52 -5.8, 152.21 -6.96 M-1.72 -0.54 C23.43 -1.49, 125.04 -4.99, 150.97 -5.83" stroke="#1e1e1e" stroke-width="1" fill="none"></path></g><g transform="translate(1465.148578028526 701.0935737855964) rotate(0 75.24697214293565 -3.31679249111437)"><path d="M123.69 4.43 C130.33 4, 139.3 -0.78, 149.51 -5.99 M123.67 5.99 C133.47 0.63, 141.97 -1.31, 150.58 -6.2" stroke="#1e1e1e" stroke-width="1" fill="none"></path></g><g transform="translate(1465.148578028526 701.0935737855964) rotate(0 75.24697214293565 -3.31679249111437)"><path d="M123 -16.07 C129.81 -10.28, 138.98 -8.83, 149.51 -5.99 M122.98 -14.52 C133 -12.98, 141.74 -8.01, 150.58 -6.2" stroke="#1e1e1e" stroke-width="1" fill="none"></path></g></g><mask></mask></svg>